# xmcd CD database file
#
# Track frame offsets:
#	150
#	2308
#	24965
#	48085
#	72038
#	99640
#	125380
#	145103
#	167883
#	190018
#
# Disc length: 2813 seconds
#
# Revision: 0
# Processed by: cddbd v1.5.1PL0 Copyright (c) Steve Scherf et al.
# Submitted via: CDex 1.51
#
DISCID=710afb0a
DTITLE=POMERANIANS - 雑踏ダイバー
DYEAR=2005
DGENRE=JPop
TTITLE0=OH! ダイバー
TTITLE1=流れる星のように
TTITLE2=夜明けまで
TTITLE3=踊っていたいよ
TTITLE4=Rudy Music
TTITLE5=忘日
TTITLE6=ハナレバナレ
TTITLE7=メトロノーム
TTITLE8=裸足の音人
TTITLE9=風まかせ
EXTD=YEAR: 2005
EXTT0=
EXTT1=
EXTT2=
EXTT3=
EXTT4=
EXTT5=
EXTT6=
EXTT7=
EXTT8=
EXTT9=
PLAYORDER=
